<svg id="svg" version="1.1" xmlns="http://www.w3.org/2000/svg" xmlns:xlink="http://www.w3.org/1999/xlink" width="400" height="400" viewBox="0, 0, 400,400"><g id="svgg"><path id="path0" d="M30.400 0.291 C 29.630 0.382,28.829 0.624,28.620 0.829 C 28.411 1.033,27.837 1.200,27.344 1.200 C 26.851 1.200,26.336 1.380,26.200 1.600 C 26.064 1.820,25.513 2.000,24.976 2.000 C 24.439 2.000,24.000 2.180,24.000 2.400 C 24.000 2.620,23.640 2.800,23.200 2.800 C 22.760 2.800,22.400 2.980,22.400 3.200 C 22.400 3.420,22.040 3.600,21.600 3.600 C 21.160 3.600,20.800 3.780,20.800 4.000 C 20.800 4.220,20.440 4.400,20.000 4.400 C 19.560 4.400,19.200 4.580,19.200 4.800 C 19.200 5.020,18.912 5.200,18.560 5.200 C 18.209 5.200,17.417 5.740,16.800 6.400 C 16.183 7.060,15.483 7.600,15.243 7.600 C 14.218 7.600,7.600 14.206,7.600 15.229 C 7.600 15.476,7.060 16.183,6.400 16.800 C 5.740 17.417,5.200 18.209,5.200 18.560 C 5.200 18.912,5.020 19.200,4.800 19.200 C 4.580 19.200,4.400 19.560,4.400 20.000 C 4.400 20.440,4.220 20.800,4.000 20.800 C 3.780 20.800,3.600 21.160,3.600 21.600 C 3.600 22.040,3.420 22.400,3.200 22.400 C 2.980 22.400,2.800 22.760,2.800 23.200 C 2.800 23.640,2.620 24.000,2.400 24.000 C 2.180 24.000,2.000 24.439,2.000 24.976 C 2.000 25.513,1.820 26.064,1.600 26.200 C 1.380 26.336,1.200 26.851,1.200 27.344 C 1.200 27.837,0.975 28.465,0.700 28.740 C -0.036 29.476,-0.036 370.524,0.700 371.260 C 0.975 371.535,1.200 372.163,1.200 372.656 C 1.200 373.149,1.380 373.664,1.600 373.800 C 1.820 373.936,2.000 374.487,2.000 375.024 C 2.000 375.561,2.180 376.000,2.400 376.000 C 2.620 376.000,2.800 376.360,2.800 376.800 C 2.800 377.240,2.980 377.600,3.200 377.600 C 3.420 377.600,3.600 377.960,3.600 378.400 C 3.600 378.840,3.780 379.200,4.000 379.200 C 4.220 379.200,4.400 379.560,4.400 380.000 C 4.400 380.440,4.580 380.800,4.800 380.800 C 5.020 380.800,5.200 381.088,5.200 381.440 C 5.200 381.791,5.740 382.583,6.400 383.200 C 7.060 383.817,7.600 384.517,7.600 384.757 C 7.600 385.782,14.206 392.400,15.229 392.400 C 15.476 392.400,16.183 392.940,16.800 393.600 C 17.417 394.260,18.209 394.800,18.560 394.800 C 18.912 394.800,19.200 394.980,19.200 395.200 C 19.200 395.420,19.560 395.600,20.000 395.600 C 20.440 395.600,20.800 395.780,20.800 396.000 C 20.800 396.220,21.160 396.400,21.600 396.400 C 22.040 396.400,22.400 396.580,22.400 396.800 C 22.400 397.020,22.760 397.200,23.200 397.200 C 23.640 397.200,24.000 397.380,24.000 397.600 C 24.000 397.820,24.439 398.000,24.976 398.000 C 25.513 398.000,26.064 398.180,26.200 398.400 C 26.336 398.620,26.851 398.800,27.344 398.800 C 27.837 398.800,28.465 399.025,28.740 399.300 C 29.476 400.036,370.524 400.036,371.260 399.300 C 371.535 399.025,372.163 398.800,372.656 398.800 C 373.149 398.800,373.664 398.620,373.800 398.400 C 373.936 398.180,374.487 398.000,375.024 398.000 C 375.561 398.000,376.000 397.820,376.000 397.600 C 376.000 397.380,376.360 397.200,376.800 397.200 C 377.240 397.200,377.600 397.020,377.600 396.800 C 377.600 396.580,377.960 396.400,378.400 396.400 C 378.840 396.400,379.200 396.220,379.200 396.000 C 379.200 395.780,379.560 395.600,380.000 395.600 C 380.440 395.600,380.800 395.420,380.800 395.200 C 380.800 394.980,381.088 394.800,381.440 394.800 C 381.791 394.800,382.583 394.260,383.200 393.600 C 383.817 392.940,384.524 392.400,384.771 392.400 C 385.794 392.400,392.400 385.782,392.400 384.757 C 392.400 384.517,392.940 383.817,393.600 383.200 C 394.260 382.583,394.800 381.791,394.800 381.440 C 394.800 381.088,394.980 380.800,395.200 380.800 C 395.420 380.800,395.600 380.440,395.600 380.000 C 395.600 379.560,395.780 379.200,396.000 379.200 C 396.220 379.200,396.400 378.840,396.400 378.400 C 396.400 377.960,396.580 377.600,396.800 377.600 C 397.020 377.600,397.200 377.240,397.200 376.800 C 397.200 376.360,397.380 376.000,397.600 376.000 C 397.820 376.000,398.000 375.561,398.000 375.024 C 398.000 374.487,398.180 373.936,398.400 373.800 C 398.620 373.664,398.800 373.149,398.800 372.656 C 398.800 372.163,399.025 371.535,399.300 371.260 C 400.036 370.524,400.036 29.476,399.300 28.740 C 399.025 28.465,398.800 27.837,398.800 27.344 C 398.800 26.851,398.620 26.336,398.400 26.200 C 398.180 26.064,398.000 25.513,398.000 24.976 C 398.000 24.439,397.820 24.000,397.600 24.000 C 397.380 24.000,397.200 23.640,397.200 23.200 C 397.200 22.760,397.020 22.400,396.800 22.400 C 396.580 22.400,396.400 22.040,396.400 21.600 C 396.400 21.160,396.220 20.800,396.000 20.800 C 395.780 20.800,395.600 20.440,395.600 20.000 C 395.600 19.560,395.420 19.200,395.200 19.200 C 394.980 19.200,394.800 18.912,394.800 18.560 C 394.800 18.209,394.260 17.417,393.600 16.800 C 392.940 16.183,392.400 15.476,392.400 15.229 C 392.400 14.206,385.782 7.600,384.757 7.600 C 384.517 7.600,383.817 7.060,383.200 6.400 C 382.583 5.740,381.791 5.200,381.440 5.200 C 381.088 5.200,380.800 5.020,380.800 4.800 C 380.800 4.580,380.440 4.400,380.000 4.400 C 379.560 4.400,379.200 4.220,379.200 4.000 C 379.200 3.780,378.840 3.600,378.400 3.600 C 377.960 3.600,377.600 3.420,377.600 3.200 C 377.600 2.980,377.240 2.800,376.800 2.800 C 376.360 2.800,376.000 2.620,376.000 2.400 C 376.000 2.180,375.561 2.000,375.024 2.000 C 374.487 2.000,373.936 1.820,373.800 1.600 C 373.664 1.380,373.149 1.200,372.656 1.200 C 372.163 1.200,371.535 0.975,371.260 0.700 C 370.782 0.222,34.383 -0.182,30.400 0.291 M116.800 50.383 C 117.570 50.576,118.920 50.920,119.800 51.147 C 120.680 51.375,121.895 51.663,122.500 51.788 C 124.049 52.108,124.078 51.779,121.594 62.200 C 117.380 79.879,112.163 97.857,106.767 113.287 C 105.438 117.089,104.086 121.010,103.762 122.000 C 103.439 122.990,103.000 124.113,102.787 124.495 C 102.540 124.938,102.400 165.983,102.400 237.995 L 102.400 350.800 92.200 350.800 L 82.000 350.800 82.000 262.600 C 82.000 212.380,81.849 174.400,81.650 174.400 C 81.457 174.400,80.620 175.705,79.790 177.300 C 78.961 178.895,77.794 181.100,77.199 182.200 C 76.604 183.300,75.338 185.730,74.386 187.600 C 73.434 189.470,72.355 191.450,71.989 192.000 C 71.372 192.925,70.783 193.972,67.488 200.000 C 66.826 201.210,66.150 202.380,65.985 202.600 C 65.820 202.820,65.287 203.720,64.800 204.600 C 64.313 205.480,61.741 209.761,59.084 214.113 C 53.697 222.939,53.928 222.797,52.453 218.200 C 51.173 214.213,49.549 209.870,48.753 208.305 C 48.559 207.923,48.400 207.442,48.400 207.236 C 48.400 207.030,47.500 204.944,46.400 202.600 C 43.946 197.370,43.623 199.035,48.856 189.942 C 54.527 180.089,65.682 158.103,69.934 148.400 C 72.462 142.632,76.546 132.799,77.992 129.000 C 78.914 126.580,80.293 122.998,81.057 121.039 C 81.821 119.081,82.894 116.111,83.440 114.439 C 83.986 112.768,84.600 111.040,84.802 110.600 C 85.695 108.663,91.640 89.904,93.612 82.800 C 95.491 76.030,98.786 63.153,99.599 59.400 C 99.885 58.080,100.370 56.010,100.677 54.800 C 100.983 53.590,101.393 51.790,101.588 50.800 C 101.783 49.810,102.121 48.531,102.340 47.957 L 102.737 46.914 109.068 48.473 C 112.551 49.330,116.030 50.189,116.800 50.383 M271.505 65.300 L 271.609 81.200 299.358 81.200 L 327.107 81.200 327.348 82.100 C 327.481 82.595,327.592 92.675,327.595 104.500 L 327.600 126.000 340.408 126.000 L 353.215 126.000 353.108 134.900 L 353.000 143.800 340.300 143.906 L 327.600 144.011 327.600 169.373 C 327.600 183.322,327.491 195.019,327.357 195.367 C 327.145 195.921,325.850 196.000,316.957 196.000 L 306.800 196.000 306.794 192.700 C 306.785 187.947,308.605 188.376,288.974 188.496 L 271.800 188.600 271.800 202.200 L 271.800 215.800 302.300 215.902 L 332.800 216.005 332.800 224.600 L 332.800 233.195 302.300 233.298 L 271.800 233.400 271.800 247.000 L 271.800 260.600 304.600 260.800 L 337.400 261.000 337.508 269.498 L 337.616 277.995 304.708 278.098 L 271.800 278.200 271.600 294.200 L 271.400 310.200 260.900 310.307 L 250.400 310.413 250.400 294.449 C 250.400 280.261,250.330 278.459,249.767 278.243 C 249.419 278.109,236.816 278.000,221.759 278.000 L 194.384 278.000 194.492 269.500 L 194.600 261.000 222.178 260.897 C 243.631 260.817,249.826 260.684,250.072 260.297 C 250.617 259.439,250.473 234.233,249.920 233.680 C 249.557 233.317,243.591 233.200,225.520 233.200 L 201.600 233.200 201.600 224.600 L 201.600 216.000 225.757 216.000 C 247.416 216.000,249.940 215.935,250.157 215.367 C 250.519 214.425,250.439 189.481,250.072 188.903 C 249.829 188.520,244.751 188.383,227.779 188.303 L 205.800 188.200 205.800 179.800 L 205.800 171.400 228.000 171.200 L 250.200 171.000 250.312 158.400 C 250.373 151.470,250.325 145.396,250.205 144.903 L 249.986 144.005 220.293 143.903 L 190.600 143.800 190.492 134.903 L 190.385 126.005 220.292 125.903 L 250.200 125.800 250.312 113.200 C 250.373 106.270,250.325 100.195,250.204 99.700 L 249.985 98.800 228.192 98.800 L 206.400 98.800 206.400 90.200 C 206.400 85.470,206.445 81.559,206.500 81.509 C 206.555 81.458,216.410 81.323,228.400 81.209 L 250.200 81.000 250.305 65.093 L 250.409 49.187 260.905 49.293 L 271.400 49.400 271.505 65.300 M190.796 90.500 L 190.792 100.600 189.196 103.116 C 188.318 104.500,187.600 105.702,187.600 105.787 C 187.600 105.872,186.676 107.439,185.547 109.271 C 184.417 111.102,183.178 113.140,182.792 113.800 C 182.197 114.818,168.485 137.591,152.237 164.545 C 149.765 168.646,148.080 171.840,148.282 172.042 C 148.475 172.235,158.075 172.439,169.616 172.496 L 190.600 172.600 190.579 188.200 C 190.558 203.189,190.003 213.583,188.806 221.400 C 188.604 222.720,188.243 225.330,188.003 227.200 C 187.534 230.866,186.950 234.448,186.405 237.000 C 186.217 237.880,185.860 239.680,185.612 241.000 C 184.918 244.685,182.475 254.780,181.595 257.600 C 181.424 258.150,180.895 259.950,180.420 261.600 C 179.945 263.250,178.723 267.030,177.703 270.000 C 176.111 274.639,174.866 277.845,171.275 286.557 L 170.634 288.115 172.945 290.266 C 174.891 292.077,177.408 294.217,180.879 297.010 C 194.226 307.749,215.034 315.555,238.000 318.439 C 249.299 319.857,312.651 319.426,349.301 317.681 C 356.190 317.353,356.025 317.326,355.614 318.722 C 355.358 319.592,350.932 330.976,349.597 334.200 C 349.414 334.640,348.666 336.573,347.933 338.495 C 347.200 340.417,346.352 342.085,346.049 342.202 C 345.091 342.571,249.283 341.617,243.000 341.176 C 232.894 340.466,220.973 338.678,214.000 336.827 C 213.230 336.622,211.250 336.103,209.600 335.673 C 206.065 334.751,198.975 332.387,196.175 331.196 C 195.089 330.734,193.480 330.054,192.600 329.684 C 183.889 326.023,171.263 318.252,164.200 312.205 C 162.880 311.075,161.368 309.855,160.840 309.495 L 159.879 308.840 156.840 313.723 C 152.210 321.159,147.263 328.201,142.031 334.800 C 139.844 337.558,131.568 347.039,128.413 350.400 L 125.597 353.400 122.730 350.200 C 121.153 348.440,117.452 344.596,114.505 341.658 L 109.147 336.315 112.065 333.258 C 120.449 324.473,120.495 324.421,126.166 317.400 C 133.292 308.576,140.452 298.229,143.935 291.722 C 144.321 291.000,143.991 290.310,141.456 286.544 C 139.847 284.155,137.828 280.940,136.968 279.400 C 136.109 277.860,135.095 276.060,134.715 275.400 C 133.802 273.813,130.190 266.473,128.712 263.200 C 125.319 255.688,121.028 243.362,118.339 233.400 C 118.102 232.520,117.763 231.350,117.587 230.800 C 117.411 230.250,117.144 229.170,116.993 228.400 C 116.841 227.630,116.556 226.325,116.359 225.500 C 115.083 220.168,114.958 220.556,118.401 219.202 C 119.610 218.727,121.140 218.087,121.800 217.781 C 124.465 216.546,131.855 213.512,132.656 213.324 C 133.631 213.096,133.771 213.432,135.179 219.400 C 135.646 221.380,136.356 224.080,136.756 225.400 C 137.157 226.720,137.716 228.610,138.000 229.600 C 140.948 239.906,146.990 254.603,151.483 262.400 C 153.833 266.478,154.639 267.718,154.965 267.757 C 156.227 267.908,163.329 243.928,165.200 233.200 C 165.449 231.770,165.812 229.880,166.005 229.000 C 166.199 228.120,166.553 225.870,166.793 224.000 C 167.032 222.130,167.320 219.970,167.433 219.200 C 168.881 209.284,169.607 192.496,168.600 192.226 C 168.160 192.108,157.666 192.008,145.281 192.005 L 122.762 192.000 122.881 181.700 L 123.000 171.400 143.152 138.000 C 154.236 119.630,163.821 103.737,164.452 102.682 C 165.084 101.628,165.600 100.593,165.600 100.382 C 165.600 100.144,157.907 100.000,145.200 100.000 L 124.800 100.000 124.800 90.467 C 124.800 85.223,124.920 80.813,125.067 80.667 C 125.213 80.520,140.063 80.400,158.067 80.400 L 190.800 80.400 190.796 90.500 M271.782 99.303 C 271.676 99.580,271.636 105.655,271.694 112.803 L 271.800 125.800 288.400 125.911 C 297.530 125.972,305.405 125.924,305.900 125.804 L 306.800 125.585 306.800 112.672 C 306.800 103.163,306.674 99.634,306.320 99.280 C 305.608 98.568,272.055 98.590,271.782 99.303 M271.695 157.500 L 271.800 171.000 289.200 171.000 L 306.600 171.000 306.712 158.400 C 306.773 151.470,306.725 145.395,306.604 144.900 L 306.385 144.000 288.987 144.000 L 271.589 144.000 271.695 157.500 " stroke="none" fill="#000000" fill-rule="evenodd"></path><path id="path1" d="M102.340 47.957 C 102.121 48.531,101.783 49.810,101.588 50.800 C 101.393 51.790,100.983 53.590,100.677 54.800 C 100.370 56.010,99.885 58.080,99.599 59.400 C 98.786 63.153,95.491 76.030,93.612 82.800 C 91.640 89.904,85.695 108.663,84.802 110.600 C 84.600 111.040,83.986 112.768,83.440 114.439 C 82.894 116.111,81.821 119.081,81.057 121.039 C 80.293 122.998,78.914 126.580,77.992 129.000 C 76.546 132.799,72.462 142.632,69.934 148.400 C 65.682 158.103,54.527 180.089,48.856 189.942 C 43.623 199.035,43.946 197.370,46.400 202.600 C 47.500 204.944,48.400 207.030,48.400 207.236 C 48.400 207.442,48.559 207.923,48.753 208.305 C 49.549 209.870,51.173 214.213,52.453 218.200 C 53.928 222.797,53.697 222.939,59.084 214.113 C 61.741 209.761,64.313 205.480,64.800 204.600 C 65.287 203.720,65.820 202.820,65.985 202.600 C 66.150 202.380,66.826 201.210,67.488 200.000 C 70.783 193.972,71.372 192.925,71.989 192.000 C 72.355 191.450,73.434 189.470,74.386 187.600 C 75.338 185.730,76.604 183.300,77.199 182.200 C 77.794 181.100,78.961 178.895,79.790 177.300 C 80.620 175.705,81.457 174.400,81.650 174.400 C 81.849 174.400,82.000 212.380,82.000 262.600 L 82.000 350.800 92.200 350.800 L 102.400 350.800 102.400 237.995 C 102.400 165.983,102.540 124.938,102.787 124.495 C 103.000 124.113,103.439 122.990,103.762 122.000 C 104.086 121.010,105.438 117.089,106.767 113.287 C 112.163 97.857,117.380 79.879,121.594 62.200 C 124.078 51.779,124.049 52.108,122.500 51.788 C 121.895 51.663,120.680 51.375,119.800 51.147 C 117.431 50.535,116.036 50.188,109.068 48.473 L 102.737 46.914 102.340 47.957 M250.305 65.093 L 250.200 81.000 228.400 81.209 C 216.410 81.323,206.555 81.458,206.500 81.509 C 206.445 81.559,206.400 85.470,206.400 90.200 L 206.400 98.800 228.192 98.800 L 249.985 98.800 250.204 99.700 C 250.325 100.195,250.373 106.270,250.312 113.200 L 250.200 125.800 220.292 125.903 L 190.385 126.005 190.492 134.903 L 190.600 143.800 220.293 143.903 L 249.986 144.005 250.205 144.903 C 250.325 145.396,250.373 151.470,250.312 158.400 L 250.200 171.000 228.000 171.200 L 205.800 171.400 205.800 179.800 L 205.800 188.200 227.779 188.303 C 244.751 188.383,249.829 188.520,250.072 188.903 C 250.439 189.481,250.519 214.425,250.157 215.367 C 249.940 215.935,247.416 216.000,225.757 216.000 L 201.600 216.000 201.600 224.600 L 201.600 233.200 225.520 233.200 C 243.591 233.200,249.557 233.317,249.920 233.680 C 250.473 234.233,250.617 259.439,250.072 260.297 C 249.826 260.684,243.631 260.817,222.178 260.897 L 194.600 261.000 194.492 269.500 L 194.384 278.000 221.759 278.000 C 236.816 278.000,249.419 278.109,249.767 278.243 C 250.330 278.459,250.400 280.261,250.400 294.449 L 250.400 310.413 260.900 310.307 L 271.400 310.200 271.600 294.200 L 271.800 278.200 304.708 278.098 L 337.616 277.995 337.508 269.498 L 337.400 261.000 304.600 260.800 L 271.800 260.600 271.800 247.000 L 271.800 233.400 302.300 233.298 L 332.800 233.195 332.800 224.600 L 332.800 216.005 302.300 215.902 L 271.800 215.800 271.800 202.200 L 271.800 188.600 288.974 188.496 C 308.605 188.376,306.785 187.947,306.794 192.700 L 306.800 196.000 316.957 196.000 C 325.850 196.000,327.145 195.921,327.357 195.367 C 327.491 195.019,327.600 183.322,327.600 169.373 L 327.600 144.011 340.300 143.906 L 353.000 143.800 353.108 134.900 L 353.215 126.000 340.408 126.000 L 327.600 126.000 327.595 104.500 C 327.592 92.675,327.481 82.595,327.348 82.100 L 327.107 81.200 299.358 81.200 L 271.609 81.200 271.505 65.300 L 271.400 49.400 260.905 49.293 L 250.409 49.187 250.305 65.093 M125.067 80.667 C 124.920 80.813,124.800 85.223,124.800 90.467 L 124.800 100.000 145.200 100.000 C 157.907 100.000,165.600 100.144,165.600 100.382 C 165.600 100.593,165.084 101.628,164.452 102.682 C 163.821 103.737,154.236 119.630,143.152 138.000 L 123.000 171.400 122.881 181.700 L 122.762 192.000 145.281 192.005 C 157.666 192.008,168.160 192.108,168.600 192.226 C 169.607 192.496,168.881 209.284,167.433 219.200 C 167.320 219.970,167.032 222.130,166.793 224.000 C 166.553 225.870,166.199 228.120,166.005 229.000 C 165.812 229.880,165.449 231.770,165.200 233.200 C 163.329 243.928,156.227 267.908,154.965 267.757 C 154.639 267.718,153.833 266.478,151.483 262.400 C 146.990 254.603,140.948 239.906,138.000 229.600 C 137.716 228.610,137.157 226.720,136.756 225.400 C 136.356 224.080,135.646 221.380,135.179 219.400 C 133.771 213.432,133.631 213.096,132.656 213.324 C 131.855 213.512,124.465 216.546,121.800 217.781 C 121.140 218.087,119.610 218.727,118.401 219.202 C 114.958 220.556,115.083 220.168,116.359 225.500 C 116.556 226.325,116.841 227.630,116.993 228.400 C 117.144 229.170,117.411 230.250,117.587 230.800 C 117.763 231.350,118.102 232.520,118.339 233.400 C 121.028 243.362,125.319 255.688,128.712 263.200 C 130.190 266.473,133.802 273.813,134.715 275.400 C 135.095 276.060,136.109 277.860,136.968 279.400 C 137.828 280.940,139.847 284.155,141.456 286.544 C 143.991 290.310,144.321 291.000,143.935 291.722 C 140.452 298.229,133.292 308.576,126.166 317.400 C 120.495 324.421,120.449 324.473,112.065 333.258 L 109.147 336.315 114.505 341.658 C 117.452 344.596,121.153 348.440,122.730 350.200 L 125.597 353.400 128.413 350.400 C 139.783 338.286,148.753 326.713,156.840 313.723 L 159.879 308.840 160.840 309.495 C 161.368 309.855,162.880 311.075,164.200 312.205 C 171.263 318.252,183.889 326.023,192.600 329.684 C 193.480 330.054,195.089 330.734,196.175 331.196 C 198.975 332.387,206.065 334.751,209.600 335.673 C 211.250 336.103,213.230 336.622,214.000 336.827 C 220.973 338.678,232.894 340.466,243.000 341.176 C 249.283 341.617,345.091 342.571,346.049 342.202 C 346.352 342.085,347.200 340.417,347.933 338.495 C 348.666 336.573,349.414 334.640,349.597 334.200 C 350.932 330.976,355.358 319.592,355.614 318.722 C 356.025 317.326,356.190 317.353,349.301 317.681 C 312.651 319.426,249.299 319.857,238.000 318.439 C 221.036 316.309,207.799 312.442,195.000 305.877 C 191.596 304.131,183.096 298.794,180.879 297.010 C 177.408 294.217,174.891 292.077,172.945 290.266 L 170.634 288.115 171.275 286.557 C 174.866 277.845,176.111 274.639,177.703 270.000 C 178.723 267.030,179.945 263.250,180.420 261.600 C 180.895 259.950,181.424 258.150,181.595 257.600 C 182.475 254.780,184.918 244.685,185.612 241.000 C 185.860 239.680,186.217 237.880,186.405 237.000 C 186.950 234.448,187.534 230.866,188.003 227.200 C 188.243 225.330,188.604 222.720,188.806 221.400 C 190.003 213.583,190.558 203.189,190.579 188.200 L 190.600 172.600 169.616 172.496 C 158.075 172.439,148.475 172.235,148.282 172.042 C 148.080 171.840,149.765 168.646,152.237 164.545 C 168.485 137.591,182.197 114.818,182.792 113.800 C 183.178 113.140,184.417 111.102,185.547 109.271 C 186.676 107.439,187.600 105.872,187.600 105.787 C 187.600 105.702,188.318 104.500,189.196 103.116 L 190.792 100.600 190.796 90.500 L 190.800 80.400 158.067 80.400 C 140.063 80.400,125.213 80.520,125.067 80.667 M306.320 99.280 C 306.674 99.634,306.800 103.163,306.800 112.672 L 306.800 125.585 305.900 125.804 C 305.405 125.924,297.530 125.972,288.400 125.911 L 271.800 125.800 271.694 112.803 C 271.636 105.655,271.676 99.580,271.782 99.303 C 272.055 98.590,305.608 98.568,306.320 99.280 M306.604 144.900 C 306.725 145.395,306.773 151.470,306.712 158.400 L 306.600 171.000 289.200 171.000 L 271.800 171.000 271.695 157.500 L 271.589 144.000 288.987 144.000 L 306.385 144.000 306.604 144.900 " stroke="none" fill="#ffffff" fill-rule="evenodd"></path></g></svg>